<svg width="96" height="32" xmlns="http://www.w3.org/2000/svg"><g fill-rule="nonzero" fill="none"><path d="M49.24 13.118c-.268-1.006-.639-1.859-1.127-2.545-.486-.692-1.072-1.205-1.755-1.555-.682-.35-1.443-.526-2.283-.526-.4 0-.8.048-1.188.144a5.173 5.173 0 0 0-2.032 1.028c-.286.236-.537.51-.747.816a1.879 1.879 0 0 0-.204-.586 2.205 2.205 0 0 0-.515-.644 3.029 3.029 0 0 0-.838-.536c-.34-.153-.74-.224-1.213-.224a5.45 5.45 0 0 0-1.263.144 6.541 6.541 0 0 0-1.12.368 5.97 5.97 0 0 0-.954.497c-.203.14-.697.478-.695.69 0 .13.077.2.198.198.17 0 .3-.082.43-.134.136-.072.287-.112.442-.117.333-.016.576.117.716.342.14.224.213.494.213.802v19.049c.004.15.026.3.066.445.036.185.144.37.31.556.166.185.413.341.735.475.322.133.762.195 1.32.195.553 0 .987-.063 1.31-.186.318-.126.558-.279.72-.458a1.11 1.11 0 0 0 .308-.54c.04-.159.063-.323.065-.487v-6.708c.126.114.298.257.504.434.561.453 1.216.775 1.916.94a6.01 6.01 0 0 0 1.515.176 4.741 4.741 0 0 0 2.038-.465c.667-.308 1.26-.81 1.779-1.495.519-.685.939-1.57 1.256-2.653.323-1.075.485-2.386.486-3.933 0-1.325-.13-2.496-.394-3.507zm-4.694 6.096c-.094.806-.248 1.513-.46 2.12-.206.604-.475 1.084-.803 1.432-.324.358-.714.537-1.176.537-.357 0-.658-.09-.903-.263a2.35 2.35 0 0 1-.61-.592 2.71 2.71 0 0 1-.344-.643c-.073-.216-.11-.362-.11-.449V12.55c.004-.242.064-.48.174-.696.11-.244.26-.467.446-.66.18-.194.39-.358.622-.487.234-.134.458-.201.692-.201.385-.005.762.109 1.08.325.318.214.593.565.826 1.046.233.482.405 1.109.526 1.885.124.784.18 1.736.18 2.861.002.866-.045 1.73-.14 2.59zM64.365 1.282c-.196-.243-.481-.466-.86-.656-.378-.19-.846-.343-1.406-.453A9.558 9.558 0 0 0 60.169 0a8.76 8.76 0 0 0-1.183.1c-.473.07-.938.196-1.385.376a7.12 7.12 0 0 0-1.4.743 5.057 5.057 0 0 0-1.235 1.215c-.365.496-.656 1.099-.876 1.802-.219.709-.334 1.535-.334 2.487v1.318a.595.595 0 0 1-.16.41.532.532 0 0 1-.389.17H51.49c-.304 0-.551.26-.551.582 0 .322.247.583.551.583h1.717a.53.53 0 0 1 .39.168c.103.11.16.258.16.412v13.389c.005.157.023.312.055.465.035.204.135.388.29.57.153.184.385.347.688.482.304.136.73.197 1.27.197.542 0 .97-.06 1.286-.176.315-.133.556-.288.724-.463.167-.176.277-.36.325-.566.009-.041.016-.082.021-.124.02-.525.05-1.042.05-1.584V10.369c.001-.155.06-.304.164-.413a.538.538 0 0 1 .391-.17h2.245c.305 0 .552-.26.552-.583 0-.322-.247-.583-.552-.583h-2.252a.53.53 0 0 1-.388-.168.594.594 0 0 1-.16-.41V4.635c0-.626.054-1.16.168-1.602.114-.443.26-.809.45-1.092.167-.266.397-.482.667-.626.254-.128.531-.194.812-.193.334 0 .627.066.87.193.236.127.453.29.643.486.174.19.324.403.447.633.118.226.233.44.34.63.084.17.18.332.289.486.089.133.195.196.305.196a.88.88 0 0 0 .5-.156c.15-.105.277-.244.37-.408a2.126 2.126 0 0 0 .326-1.137c0-.263-.098-.512-.288-.764zM75.506 21.77c-.247-.01-.518.319-.771.518-.25.197-.516.373-.795.524-.28.15-.576.27-.882.354-.335.092-.68.137-1.026.133a3.985 3.985 0 0 1-1.45-.259 4.442 4.442 0 0 1-1.21-.696 5.517 5.517 0 0 1-.96-.997 6.37 6.37 0 0 1-.702-1.164 7.237 7.237 0 0 1-.437-1.22 4.98 4.98 0 0 1-.133-.774.568.568 0 0 1 .278-.53l5.938-3.58a4.073 4.073 0 0 0 1.142-1.061 2.29 2.29 0 0 0 .43-1.36 2.703 2.703 0 0 0-.287-1.205 2.91 2.91 0 0 0-.864-1.011c-.382-.292-.866-.52-1.447-.697-.577-.165-1.254-.255-2.03-.255-.59 0-1.207.09-1.841.252a8.417 8.417 0 0 0-1.868.747 9.047 9.047 0 0 0-1.747 1.234 8.274 8.274 0 0 0-1.447 1.724 8.663 8.663 0 0 0-.992 2.21 9.444 9.444 0 0 0-.364 2.692c0 1.354.209 2.544.61 3.553.402 1.015.941 1.858 1.616 2.534a6.721 6.721 0 0 0 2.31 1.529 7.245 7.245 0 0 0 2.679.504c.914 0 1.73-.113 2.445-.341a7.853 7.853 0 0 0 3.257-2c.377-.395.727-.69.794-1.095.025-.11-.11-.259-.246-.262zm-8.522-6.354c.01-.443.041-.897.094-1.367.053-.471.126-.949.223-1.41.09-.431.229-.85.412-1.25.159-.345.385-.652.665-.903a1.45 1.45 0 0 1 .975-.348c.28-.004.549.103.752.298.223.203.402.45.526.727.137.293.235.603.291.923a4.985 4.985 0 0 1 .046 1.515 1.63 1.63 0 0 1-.116.42.92.92 0 0 1-.214.293 2.267 2.267 0 0 1-.338.252l-2.414 1.407a.585.585 0 0 1-.61.001.613.613 0 0 1-.292-.548v-.01zM31.281 9.736a1.136 1.136 0 0 0-.315-.563c-.172-.178-.422-.34-.761-.478-.339-.139-.81-.205-1.413-.205-.601 0-1.076.066-1.43.19-.354.122-.617.27-.807.45-.19.179-.308.368-.355.565a1.978 1.978 0 0 0-.078.506v13.563c.006.156.025.31.06.463.039.196.144.385.319.567.166.184.422.341.762.476.34.136.81.2 1.411.2.6 0 1.077-.061 1.427-.183.35-.13.622-.279.804-.457.19-.172.315-.36.364-.556.046-.167.072-.338.078-.51V10.203a2.233 2.233 0 0 0-.066-.467z" fill="#221F20"/><path d="M32.145 5.818c-2.338.08-4.611.077-6.828.007-.34-.014-.566-.356-.484-.676L25.95.877a.943.943 0 0 1 .724-.68 10.907 10.907 0 0 1 4.126 0 .94.94 0 0 1 .72.68l1.115 4.268c.087.324-.148.666-.49.673z" fill="#ED8423"/><path d="M23.06 8.985c-.3-.328-.711-.493-1.24-.493a2.054 2.054 0 0 0-.745.147 3.368 3.368 0 0 0-.723.387 4.977 4.977 0 0 0-.67.546 6.579 6.579 0 0 0-.603.632 12.82 12.82 0 0 0-1.256 1.688v-1.69a2.502 2.502 0 0 0-.058-.466 1.177 1.177 0 0 0-.286-.563c-.155-.178-.386-.34-.695-.478-.309-.139-.74-.205-1.287-.205-.548 0-.982.066-1.303.19-.32.122-.564.271-.737.451-.172.18-.28.368-.325.566a2.171 2.171 0 0 0-.07.506v13.561c.005.156.023.31.055.463.035.196.13.385.29.567.15.184.381.341.694.476.312.136.733.2 1.286.2s.983-.061 1.3-.183c.323-.13.568-.279.74-.457.166-.172.28-.36.326-.556.041-.167.065-.338.07-.51V13.613a.567.567 0 0 1 .19-.438c.168-.147.34-.294.526-.44.267-.217.547-.417.837-.598.29-.181.593-.335.908-.46.302-.12.622-.182.946-.185.436 0 .762.106.992.324.228.223.38.515.436.834.042.216.352.253.431 0 .17-.483.28-.896.338-1.234a6.3 6.3 0 0 0 .083-1.049c-.001-.599-.151-1.054-.45-1.382zM89.702 22.088a1.734 1.734 0 0 0-.354-.506.655.655 0 0 0-.48-.206.546.546 0 0 0-.44.213 3.8 3.8 0 0 0-.343.533c-.117.214-.255.44-.413.681a2.922 2.922 0 0 1-.644.686c-.259.218-.607.387-1.03.532-.42.136-.945.205-1.589.205-.498 0-.906-.006-1.216-.026a4.154 4.154 0 0 1-.705-.086c-.169-.043-.272-.093-.337-.159a.324.324 0 0 1-.086-.228.73.73 0 0 1 .105-.378c.065-.116.115-.192.148-.25l6.645-10.256c.056-.076 2.114-3.157 2.466-4.353-1.018.46-3.834.4-5.261.209a22.63 22.63 0 0 0-3.032-.209h-.022a16.072 16.072 0 0 0-2.32.155c-.675.1-1.253.242-1.719.421-.465.179-.828.384-1.069.632-.24.248-.37.52-.37.815.001.2.023.4.067.595.037.202.101.398.19.583.078.168.187.319.322.444.13.118.3.182.475.178a.473.473 0 0 0 .392-.199c.115-.15.22-.309.315-.473.105-.188.23-.393.374-.618.153-.235.341-.444.558-.62.263-.204.557-.366.87-.478.352-.126.792-.192 1.324-.192.863 0 1.451.043 1.776.125.315.093.482.242.482.442a.994.994 0 0 1-.124.454c-.078.159-.172.31-.28.45l-6.468 9.984a7.783 7.783 0 0 0-.631 1.049c-.14.288-.213.603-.216.924a1.55 1.55 0 0 0 .355 1.02c.231.294.61.532 1.136.72.518.186 1.194.327 2.027.421.828.1 1.833.147 3.016.147 1.103 0 2.049-.05 2.853-.165.803-.1 1.467-.242 1.989-.438.521-.184.91-.413 1.165-.665.255-.252.383-.52.383-.808a3.337 3.337 0 0 0-.068-.642 3.132 3.132 0 0 0-.216-.663zM7.948 9.672c-.303.001-.549.241-.551.538v11.044c0 .558.11.941.322 1.157.21.21.507.319.878.319.275.005.544-.078.768-.235.215-.15.408-.33.573-.532.146-.166.273-.348.38-.54a.28.28 0 0 1 .358-.123c.068.03.12.087.145.156.025.07.02.146-.013.211-.132.261-.28.541-.448.845-.226.411-.519.784-.867 1.103-.36.34-.816.626-1.366.857-.55.23-1.24.345-2.07.344-.459 0-.914-.068-1.351-.203a3.148 3.148 0 0 1-1.156-.646 3.255 3.255 0 0 1-.808-1.092c-.203-.442-.302-.968-.302-1.585V10.21a.548.548 0 0 0-.552-.537H.648c-.864 0-.864-1.128 0-1.128.3 0 .715-.077 1.247-.225a6.53 6.53 0 0 0 1.643-.764 6.493 6.493 0 0 0 1.558-1.424c.402-.5.704-1.093.911-1.788a.606.606 0 0 1 .582-.426h.204a.61.61 0 0 1 .43.175.586.586 0 0 1 .175.422v3.489c0 .298.247.54.552.541h2.058c.85 0 1.274-.143 1.274-.422 0-.11-.053-.177-.158-.215a8.477 8.477 0 0 1-.361-.14 1.238 1.238 0 0 1-.358-.246c-.11-.103-.162-.278-.162-.515 0-.294.092-.523.283-.693.183-.16.428-.248.732-.248.174-.004.346.037.5.12.141.076.264.183.36.311.097.137.17.288.217.448.047.164.072.333.073.502 0 .676-.204 1.217-.605 1.624-.4.396-1.04.599-1.926.599l-1.929.002zM93.388 7.224a2.77 2.77 0 0 1 .497-.04c.276 0 .455.049.58.158.105.096.162.23.157.37 0 .256-.166.426-.378.496v.008c.155.052.248.19.295.393.065.27.113.458.155.533h-.268c-.033-.055-.077-.222-.134-.464-.06-.269-.166-.37-.401-.377h-.244v.842h-.26V7.224zm.259.886h.264c.277 0 .453-.148.453-.37 0-.25-.188-.36-.46-.363a1.113 1.113 0 0 0-.256.023l-.001.71z" fill="#221F20"/><path d="M93.713 7.184a1.633 1.633 0 1 0 .003 3.265 1.633 1.633 0 0 0-.003-3.265zm0 3.122a1.487 1.487 0 1 1 .004-2.973 1.487 1.487 0 0 1-.004 2.973z" fill="#221F20"/></g></svg>